<?xml version="1.0" encoding="utf-8"?>
<!-- Svg Vector Icons : http://www.onlinewebfonts.com/icon -->
<!DOCTYPE svg PUBLIC "-//W3C//DTD SVG 1.1//EN" "http://www.w3.org/Graphics/SVG/1.1/DTD/svg11.dtd">
<svg version="1.1" xmlns="http://www.w3.org/2000/svg" xmlns:xlink="http://www.w3.org/1999/xlink" x="0px" y="0px" viewBox="0 0 1000 1000" enable-background="new 0 0 1000 1000" xml:space="preserve">
<metadata> Svg Vector Icons : http://www.onlinewebfonts.com/icon </metadata>
<g><g transform="translate(0.000000,512.000000) scale(0.100000,-0.100000)"><path d="M4974.3,4843.4c-101.7-97.9-211.2-213.1-245.7-255.3l-61.4-76.8l9.6,138.2l11.5,138.2l-119-92.1c-65.3-51.8-284.1-201.6-485.7-334c-414.7-270.7-545.2-395.5-650.8-618.1c-105.6-218.8-132.5-403.1-117.1-781.3c7.7-174.7,21.1-391.6,30.7-479.9c17.3-142.1,15.4-161.3-13.4-178.5c-63.3-38.4-119-103.7-132.5-155.5c-13.4-49.9,11.5-393.5,49.9-704.5c9.6-88.3,34.6-180.5,59.5-224.6c40.3-69.1,61.4-86.4,170.8-128.6c40.3-17.3,53.8-44.2,82.5-178.5c82.6-368.6,264.9-819.7,433.8-1075c74.9-113.3,80.6-128.6,69.1-209.2c-7.7-49.9-17.3-94.1-21.1-101.7c-3.8-7.7-74.9,21.1-157.4,61.4c-612.4,307.1-1318.8,305.2-1933.1-3.8c-938.7-472.2-1401.4-1578-1075-2574.3c53.7-165.1,176.6-420.4,264.9-549.1c334-485.7,873.5-827.4,1453.2-913.8c190-30.7,449.2-34.6,593.2-13.4c69.1,11.5,126.7,0,328.3-67.2c533.7-178.5,944.5-243.8,1545.4-245.7c458.8,0,612.4,15.3,1017.4,96c729.5,147.8,1474.3,501,2073.3,982.9c353.2,286,752.5,716,982.9,1063.5l86.4,130.5l-88.3,115.2c-48,61.4-134.4,153.6-188.1,203.5c-140.1,122.9-650.8,372.4-927.2,451.1c-314.8,92.1-685.3,241.9-1094.2,445.4c-199.6,99.8-439.6,215-531.7,257.2c-192,86.4-176.6,55.7-243.8,456.9l-36.5,211.2l101.7,134.4c228.4,305.2,403.1,729.5,518.3,1265.1c32.6,147.8,32.6,147.8,94.1,147.8c130.5,0,178.5,119,203.5,504.9c24.9,374.3,15.3,445.4-74.9,531.8c-38.4,36.5-84.5,76.8-101.7,86.4c-28.8,17.3-30.7,44.1-15.4,278.3c44.2,660.4,17.3,940.6-119,1196c-72.9,136.3-264.9,337.9-420.4,439.6c-184.3,120.9-729.5,420.4-871.5,476.1l-134.4,53.7l-9.6-80.6l-9.6-78.7l-36.5,67.2c-25,44.2-40.3,120.9-46.1,216.9c-5.8,80.6-15.4,147.8-23,147.8C5162.5,5020,5074.2,4939.4,4974.3,4843.4z M4444.5,2464.9c264.9-97.9,443.4-132.5,681.5-132.5c249.6,0,401.2,28.8,675.7,126.7c178.5,63.3,205.4,67.2,272.6,48c94.1-28.8,193.9-144,238-276.4c44.2-132.5,59.5-508.7,30.7-733.3c-119-900.3-455-1579.9-861.9-1739.2c-92.2-36.5-145.9-42.2-349.4-42.2c-203.5,0-257.2,5.8-349.4,42.2c-407,157.4-748.7,856.2-860,1748.8c-63.3,524.1,32.6,909.9,249.6,996.3C4246.8,2532.1,4273.7,2528.2,4444.5,2464.9z M4776.6-741c161.3-55.7,439.6-67.2,622-28.8c78.7,17.3,145.9,26.9,149.7,23c3.8-3.8,21.1-78.7,36.5-167c80.6-420.4,126.7-466.5,883-840.8c587.4-289.9,936.8-437.7,1303.5-549c224.6-67.2,547.1-197.7,616.2-247.6c30.7-23,9.6-48-215-280.3c-408.9-418.5-752.5-670-1245.9-911.9c-637.3-312.9-1299.6-453-1996.5-426.2c-274.5,11.5-664.2,59.5-712.2,86.4c-15.4,7.7,28.8,57.6,115.2,130.5c364.7,309.1,633.5,792.9,712.2,1284.3c90.2,549-49.9,1140.3-376.3,1589.5c-88.3,122.9-94.1,134.4-76.8,201.6c9.6,38.4,23,94.1,28.8,124.8C4636.5-691.1,4630.7-691.1,4776.6-741z M3288.9-840.8c401.2-109.4,706.4-328.3,921.4-660.4c170.8-261.1,240-497.2,240-831.2c0-433.8-144-783.2-443.5-1082.7c-299.5-299.5-648.8-443.4-1082.7-443.4c-334,0-570.2,69.1-831.2,240c-416.6,270.7-666.1,700.7-698.8,1201.7C1344.2-1649,1881.7-971.3,2665-817.8C2793.6-792.8,3158.3-806.3,3288.9-840.8z"/><path d="M2818.5-1389.8c-232.3-107.5-270.7-357.1-86.4-564.4l61.4-71h-372.4c-347.5,0-378.2-1.9-456.9-42.2c-107.5-55.7-155.5-122.9-167-234.2c-15.4-124.8,34.6-230.4,138.2-291.8c78.7-44.2,90.2-46.1,478-46.1h399.3l-78.7-88.3c-42.2-48-86.4-119-99.8-155.5c-51.8-159.3,26.9-339.8,182.4-410.8c190-86.4,253.4-51.8,691.1,382c437.7,433.9,479.9,506.8,405.1,691.1c-40.3,96-721.8,781.3-825.5,831.2C2991.3-1345.7,2916.4-1343.8,2818.5-1389.8z"/></g></g>
</svg>