<?xml version="1.0" encoding="utf-8"?>
<!-- Generator: Adobe Illustrator 15.0.0, SVG Export Plug-In . SVG Version: 6.00 Build 0)  -->
<!DOCTYPE svg PUBLIC "-//W3C//DTD SVG 1.1//EN" "http://www.w3.org/Graphics/SVG/1.1/DTD/svg11.dtd">
<svg version="1.1" id="Layer_1" xmlns="http://www.w3.org/2000/svg" xmlns:xlink="http://www.w3.org/1999/xlink" x="0px" y="0px"
	 width="934px" height="534px" viewBox="0 0 934 534" enable-background="new 0 0 934 534" xml:space="preserve">
<path fill-rule="evenodd" clip-rule="evenodd" fill="#434343" d="M735.358,124.616c-0.031,5.347,1.119,11.875-4.034,12.101
	c-10.431-11.082-17.492-25.534-22.185-42.353c8.067,0,16.135,0,24.202,0c0.021,5.357-0.763,11.518,2.017,14.118
	C735.358,113.859,735.358,119.237,735.358,124.616z"/>
<path fill-rule="evenodd" clip-rule="evenodd" fill="#434343" d="M628.466,100.414c9.058,0.99,15.112-1.022,22.186-2.017
	c2.662,12.747-5.639,14.53-8.067,22.185c0,0.672,0,1.344,0,2.017c-3.837,5.575-0.878,17.945-8.067,20.168
	c-12.58-3.554-6.537-25.732-8.067-40.336C626.563,101.2,626.751,100.043,628.466,100.414z"/>
<path fill-rule="evenodd" clip-rule="evenodd" fill="#434343" d="M356.194,146.801c2.351-0.339,2.19-3.188,2.017-6.051
	c13.123,24.629-5.355,49.302-6.051,80.673c-0.731,10.144,14.686,4.138,12.102,16.135c-11.319,2.126-24.504,2.386-38.32,2.017
	c-1.947-12.031,12.352-7.817,12.102-18.151c1.961-0.056,1.564-2.469,2.017-4.034c4.876-7.226,4.341-19.862,8.067-28.235
	c0-2.017,0-4.034,0-6.051c4.067-10.05,5.838-22.397,8.067-34.286C356.194,148.145,356.194,147.473,356.194,146.801z"/>
<path fill-rule="evenodd" clip-rule="evenodd" fill="#434343" d="M549.81,187.137c0,0.672,0,1.345,0,2.017
	c-1.224,14.669,1.547,25.344,2.018,38.319c-8.118,1.295-21.446-2.622-26.219,2.017c-2.018,0-4.034,0-6.051,0
	c-7.17,3.136-1.218-6.85-6.051-6.051c4.046-8.055,17.36-6.842,18.151-18.151c1.572-0.445,2.345-1.689,2.018-4.034
	c3.729-0.303,1.237-6.829,4.033-8.067c0-1.344,0-2.689,0-4.033C537.75,183.626,547.224,184.364,549.81,187.137z"/>
<path fill-rule="evenodd" clip-rule="evenodd" fill="#434343" d="M499.39,273.861c9.556,1.488,13.866-2.269,22.185-2.018
	c-1.644,15.488,5.969,31.136,0,44.37c-2.017,0-4.033,0-6.051,0C513.031,299.211,501.476,291.271,499.39,273.861z"/>
<path fill-rule="evenodd" clip-rule="evenodd" fill="#434343" d="M400.564,300.08c0,1.344,0,2.688,0,4.033
	c-0.906,16.369,0.868,30.057,2.018,44.37c-18.141-11.44-5.546-53.615-26.219-62.521c0-1.345,0-2.689,0-4.034
	c0.672,0,1.344,0,2.016,0c11.521,0.825,24.471-5.611,34.287,0C413.401,292.748,399.828,289.26,400.564,300.08z"/>
<path fill-rule="evenodd" clip-rule="evenodd" fill="#434343" d="M186.781,352.518c-0.617-37.593,15.633-58.318,46.387-64.539
	c4.332,12.701-3.421,8.956-6.051,18.151c0,2.689,0,5.379,0,8.067c0,1.345,0,2.689,0,4.034c0,1.344,0,2.688,0,4.033
	c2.673,13.462,0.156,32.113,4.034,44.37c0,5.379,0,10.757,0,16.135c-3.897,18.016,10.889,17.347,10.084,32.27
	c-7.67-3.783-11.583-2.16-18.152-4.034c-0.672,0-1.344,0-2.017,0c-18.465-9.099-28.972-26.154-34.286-48.403
	C186.781,359.24,186.781,355.879,186.781,352.518z"/>
<path fill-rule="evenodd" clip-rule="evenodd" fill="#434343" d="M174.68,298.063c0,6.723,0,13.445,0,20.169c0,2.017,0,4.033,0,6.05
	c-6.365-0.986-7.122,3.635-14.118,2.018c-1.13-17.694-23.643-14.005-24.202-32.27c7.226,0.17,11.654,3.137,18.152,4.033
	c0.672,0,1.344,0,2.017,0c5.285,6.448,6.942-7.713,14.118-6.05C171.625,294.396,172.797,296.585,174.68,298.063z"/>
<path fill-rule="evenodd" clip-rule="evenodd" fill="#434343" d="M315.857,320.248c0-0.673,0-1.345,0-2.017
	c18.377,8.933,6.195,44.919,14.118,66.555c3.663,10.002,9.815,8.515,14.118,18.151c-5.396,2-10.635,4.156-18.152,4.034
	c-1.344,0-2.688,0-4.033,0c-4.033,0-8.067,0-12.102,0c0.008-2.023-1.633-2.4-2.016-4.034c16.982-10.361,11.088-42.146,8.066-64.538
	c0-1.345,0-2.689,0-4.034c0-2.688,0-5.378,0-8.066C315.857,324.281,315.857,322.265,315.857,320.248z"/>
<path fill-rule="evenodd" clip-rule="evenodd" fill="#434343" d="M176.697,326.299c0,0.672,0,1.344,0,2.017
	c-1.866,1.352,1.772,11.735-4.034,14.117c-8.009-0.059-8.285-7.85-10.084-14.117C169.126,329.484,171.961,326.941,176.697,326.299z"
	/>
<path fill-rule="evenodd" clip-rule="evenodd" fill="#434343" d="M144.427,419.072c0-3.361,0-6.723,0-10.084
	c17.726-1.098,21.104-16.543,28.236-28.235c9.897-1.091,5.483,13.33,4.034,18.151c-1.23,0.114-2.388,0.302-2.017,2.017
	c-6.991,9.816-16.529,17.085-30.252,20.168C144.427,420.417,144.427,419.745,144.427,419.072z"/>
<path fill-rule="evenodd" clip-rule="evenodd" fill="#434343" d="M868.469,39.909c1.345,0,2.689,0,4.034,0
	c11.296-1.884,12.085,6.738,16.134,12.101c0,5.378,0,10.756,0,16.135c2.194,14.613,0.395,33.219,4.034,46.387
	c0,3.361,0,6.723,0,10.084c0,1.344,0,2.689,0,4.034c0.879,21.979,2.71,43.004,4.033,64.538c0,2.017,0,4.034,0,6.051
	c2.135,17.361,1.671,37.321,4.034,54.454c0,2.017,0,4.034,0,6.051c3.957,24.469-3.337,36.818,4.033,52.438c0,3.361,0,6.723,0,10.084
	c0.339,9.777,1.23,36.394,4.034,50.421c0,5.378,0,10.756,0,16.135c9.16,32.69-19.665,27.395-40.337,30.252
	c-4.033,0-8.067,0-12.101,0c-18.834-0.742-35.666,5.158-38.32-2.017c-6.853,6.751-29.131,4.33-44.37,8.067c-1.345,0-2.689,0-4.033,0
	c-31.73,1.211-63.693,2.189-92.774,6.051c-6.051,0-12.101,0-18.151,0c-14.613,2.193-33.22,0.395-46.387,4.033
	c-3.362,0-6.723,0-10.085,0c-7.623-1.315-44.658,2.21-62.521,4.034c-1.345,0-2.688,0-4.033,0
	c-24.597,0.277-46.637,3.112-70.589,4.033c-2.018,0-4.034,0-6.051,0c-8.483-0.688-37.408,8.353-32.27-4.033
	c-5.475,0.575-4.721,7.38-10.084,8.067c-6.051-0.001-12.102,0-18.151,0c-13.972-1.721-40.728,10.187-44.37-6.051
	c-0.734,6.66-2.335,12.455-12.102,10.084c-2.688,0-5.378,0-8.066,0c-37.26,3.078-76.974,3.7-112.943,8.067
	c-4.706,0-9.412,0-14.118,0c-16.475,0.034-39.67,2.575-60.505,4.033c-2.689,0-5.378,0-8.067,0
	c-14.613,2.194-33.219,0.395-46.387,4.034c-0.672,0-1.344,0-2.017,0c-4.034,0-8.067,0-12.101,0
	c-13.598,0.824-26.741,1.194-28.236-10.084c0-3.361,0-6.723,0-10.084c0-1.345,0-2.689,0-4.034
	c-2.193-14.613-0.394-33.22-4.033-46.387c0-2.018,0-4.034,0-6.051c0-2.689,0-5.378,0-8.067c1.449-11.533-2.152-18.017-2.017-28.235
	c0-0.673,0-1.345,0-2.017c1.999-2.789-1.1-17.637-2.017-24.202c4.471-1.11,2.872,3.851,6.05,4.033
	c2.071-11.222-3.141-4.039-6.05-8.067c0-1.345,0-2.688,0-4.033c4.045-14.082-9.365-28.247,6.05-26.219
	c-12.017-3.072-4.158-15.554-10.084-26.219c0-2.017,0-4.034,0-6.051c0-2.689,0-5.378,0-8.067c0-2.017,0-4.034,0-6.05
	c-2.194-14.613-0.395-33.219-4.034-46.387c0-2.689,0-5.378,0-8.067c0-1.344,0-2.689,0-4.033c0-2.017,0-4.034,0-6.051
	c-2.194-14.613-0.395-33.219-4.034-46.387c0-4.706,0-9.412,0-14.118c0-2.689,0-5.378,0-8.067
	c-10.611-28.541,26.28-22.192,46.387-26.219c3.362,0,6.723,0,10.084,0c9.08,3.473,26.664-6.845,24.202,4.034
	c2.559-12.232,27.563-2.018,36.303-8.067c2.017,0,4.034,0,6.05,0c23.096-0.387,35.851-1.375,58.488-4.034c2.689,0,5.378,0,8.067,0
	c2.017,0,4.034,0,6.051,0c4.178-1.2,13.249,2.493,14.118-2.017c1.345,0,2.689,0,4.034,0c8.783-1.301,22.799,2.63,28.236-2.017
	c1.344,0,2.689,0,4.034,0c2.689,0,5.378,0,8.067,0c8.773,0.033,18.146,0.667,24.203-2.017c-2.236,2.898,22.05-0.14,28.234-2.017
	c2.689,0,5.379,0,8.068,0c3.361,0,6.723,0,10.084,0c0.672,0,1.344,0,2.017,0c14.142-1.993,31.78-0.489,44.37-4.034
	c4.706,0,9.412,0,14.118,0c2.017,0,4.033,0,6.05,0c14.608-2.303,40.607-1.343,48.404-4.034c2.689,0,5.378,0,8.067,0
	c17.729-1.094,36.83-0.818,52.438-4.034c1.345,0,2.689,0,4.034,0c2.688,0,5.378,0,8.066,0c2.689,0,5.379,0,8.067,0
	c15.097-2.383,34.657-0.302,48.404-4.034c3.361,0,6.723,0,10.084,0c6.13-1.265,17.372,2.582,20.168-2.017c0.673,0,1.345,0,2.018,0
	c9.45-1.306,24.15,2.638,30.252-2.017c0.673,0,1.345,0,2.017,0c22.239,0.054,43.642-0.729,62.522-4.034
	c11.094-1.007,26.425,2.224,34.286-2.017c19.576-0.114,30.549,1.505,40.336-2.017c1.771,3.742,9.513,11.819,12.102,8.067
	c-3.576-2.475-5.845-6.257-10.085-8.067C828.952,42.977,844.566,42.389,868.469,39.909z M795.863,60.077c-1.345,0-2.689,0-4.034,0
	s-2.688,0-4.033,0c-4.034,0-8.067,0-12.102,0c-17.005,2.49-37.875,1.116-54.454,4.034c-8.596,0.816-20.776-1.953-26.219,2.017
	c-22.054,0.131-43.521,0.85-62.521,4.034c-0.673,0-1.345,0-2.017,0c-9.45,1.306-24.15-2.638-30.253,2.017c-1.345,0-2.689,0-4.033,0
	c-5.379,0-10.757,0-16.135,0c-14.613,2.193-33.22,0.394-46.387,4.034c-2.689,0-5.379,0-8.067,0c-2.689,0-5.379,0-8.067,0
	c-13.505-1.285-39.88,7.274-42.354-2.017c-0.827,3.439-2.602-0.424-6.051,0c2.837,8.887-6.637,5.464-12.102,6.05
	c-0.672,0-1.344,0-2.016,0c-16.744,1.408-35.583,0.721-50.422,4.034c-5.377,0-10.756,0-16.134,0
	c-4.179,1.2-13.249-2.493-14.118,2.017c-0.672,0-1.344,0-2.017,0c-10.118,1.31-25.501-2.644-32.27,2.017c-1.345,0-2.688,0-4.034,0
	c-0.672,0-1.344,0-2.016,0c-0.673,0-1.346,0-2.018,0c-22.293,0.791-35.215,0.642-56.471,4.034c-2.689,0-5.378,0-8.067,0
	c-1.345,0-2.689,0-4.034,0c-13.897-2.422-29.812,2.434-52.438,4.034c-7.395,0-14.79,0-22.185,0
	c-15.645,1.769-26.642-0.043-42.354,4.034c-6.723,0-13.446,0-20.168,0c-0.672,0-1.345,0-2.017,0
	c-12.252,3.21-31.063-0.138-42.354,4.034c-5.378,0-10.756,0-16.135,0c-1.344,0-2.689,0-4.034,0
	c-7.346-0.624-13.125,0.32-18.151,2.017c1.729,6.435-3.174,6.238-4.034,10.084c10.754,19.499,3.837,56.667,10.084,80.673
	c0,6.051,0,12.101,0,18.152c2.194,14.613,0.395,33.219,4.034,46.387c0,6.051,0,12.102,0,18.151
	c1.765,17.06,0.937,36.711,4.034,52.438c-3.965-0.604-4,2.724-6.05,4.034c-0.031-2.644-5.594-2.569-6.05,0
	c4.751-0.046,5.938,3.474,12.101,2.017c0,2.689,0,5.378,0,8.067c2.872,14.607,0.175,34.783,4.034,48.403c0,5.379,0,10.757,0,16.135
	c0.233,14.558,3.335,26.245,2.017,42.354c7.453-1.286,20.091,2.611,24.202-2.017c5.378,0,10.756,0,16.135,0
	c21.006-1.179,41.74-2.631,62.521-4.033c1.345,0,2.689,0,4.034,0c18.067-2.102,39.046-1.291,56.471-4.034c2.017,0,4.034,0,6.051,0
	c36.903-2.761,75.886-3.442,110.926-8.067c4.045,2.072,16.557-1.331,26.219,0c11.513-3.949,31.503,0.579,42.354-4.033
	c2.688,0,5.378,0,8.066,0c1.346,0,2.689,0,4.034,0c0.673,0,1.345,0,2.017,0c1.345,0,2.689,0,4.033,0
	c14.614-2.194,33.22-0.395,46.388-4.034c4.706,0,9.412,0,14.118,0c9.753-3.371,1.984,9.382,8.067,4.034
	c1.438-7.812,27.763-3.353,42.353-8.067c0.673,0,1.345,0,2.018,0c24.715-0.159,48.256-1.492,70.589-4.034c0.672,0,1.345,0,2.017,0
	c6.644,2.961,38.479-2.965,54.454-4.033c3.361,0,6.723,0,10.084,0c21.243-0.942,42.95-1.421,62.522-4.034c3.361,0,6.723,0,10.084,0
	c17.832-1.663,37.746-1.245,54.454-4.033c2.689,0,5.378,0,8.067,0c1.345,0,2.689,0,4.033,0c6.098-1.873,15.686,2.881,16.135,0
	c0.114-1.23,0.302-2.388,2.018-2.017c1.571,0.445,2.345,1.688,2.017,4.033c3.95-6.806,20.15-1.362,26.219-6.051
	c7.284-0.139,16.152-0.628,8.067,4.034c6.566,4.81,13.808-5.276,4.033,0c0.427-2.263,2.238-3.14,4.034-4.034
	c4.033,0,8.067,0,12.101,0c0.615-12.716-0.318-23.883-2.017-34.286c0-3.361,0-6.723,0-10.084c-1.993-14.142-0.488-31.78-4.034-44.37
	c0-6.723,0-13.445,0-20.168c3.164-15.047-2.148-28.527-4.033-48.404c0-3.361,0-6.723,0-10.084
	c-1.783-19.057-0.866-40.815-4.033-58.488c0-0.672,0-1.345,0-2.017c-0.283-19.885-0.896-39.44-4.034-56.471c0-2.017,0-4.034,0-6.05
	c0-1.345,0-2.689,0-4.034c0-3.361,0-6.723,0-10.084c-2.491-13.644-0.404-31.865-4.033-44.371
	c-8.111-1.388-11.514,1.933-18.152,2.017c-2.022,0.006-2.399-1.633-4.033-2.017c-0.339,2.35-3.188,2.19-6.051,2.017
	c-17.529,2.654-39.453,1.13-50.421,0C795.418,56.489,796.191,57.732,795.863,60.077z M838.217,419.072
	c1.226-7.948-4.513-8.933-10.085-10.084C830.951,412.893,830.577,419.989,838.217,419.072z"/>
<path fill-rule="evenodd" clip-rule="evenodd" fill="#434343" d="M142.411,199.238c-1.984-18.185-2.05-38.287-4.034-56.471
	c-8.555-3.27-9.622-6.21-10.084-14.118c11.861,0.912,22.167,3.38,30.252,8.067c0.672,0,1.344,0,2.017,0
	c17.491,13.434,28.354,33.496,26.219,66.556c0,0.672,0,1.344,0,2.017c-2.945,15.207-11.292,25.011-18.151,36.303
	c8.98,5.985,18.69-5.948,22.185,2.017c-4.572,14.984-30.609,17.258-40.336,6.05c-1.073,5.65-9.717,3.728-14.118,6.05
	c-2.011-8.734,2.253-11.192,4.034-16.134c-3.175-3.547-10.801-2.644-14.118-6.05c1.261-9.387,10.753-7.432,18.151-6.051
	c-0.344-3.018,0.721-7.443-2.017-8.067C142.411,212.684,142.411,205.961,142.411,199.238z"/>
<path fill-rule="evenodd" clip-rule="evenodd" fill="#434343" d="M295.689,205.289c-4.52-23.575,4.176-69.178-20.168-78.656
	c1.571-0.445,2.345-1.689,2.017-4.034c5.357-0.021,11.519,0.762,14.118-2.017c2.688,0,5.378,0,8.066,0
	c4.179,1.2,13.25-2.493,14.118,2.017c0,2.017,0,4.034,0,6.051c-20.876,5.947-8.86,43.112-8.067,62.521c0,0.672,0,1.345,0,2.017
	c2.066,23.58-4.004,39.021-16.135,48.404c-0.672,0-1.344,0-2.017,0c-3.175,1.049-10.801,7.765-14.118,2.017
	c4.914-14.582,24.24-14.751,22.185-36.303C295.689,206.633,295.689,205.961,295.689,205.289z"/>
<path fill-rule="evenodd" clip-rule="evenodd" fill="#434343" d="M807.964,253.692c8.222,1.667,6.945,0.31,16.135,0
	c2.017,0,4.033,0,6.051,0c1.067,1.622,2.104,3.274,2.017,6.051c0,0.672,0,1.345,0,2.017c-2.996,2.382-9.012,1.745-8.067,8.067
	c0,2.689,0,5.378,0,8.067c0,1.345,0,2.689,0,4.033c2.039,18.83-0.491,32.973,4.033,50.421c0,4.034,0,8.067,0,12.102
	c0.363,14.756,1.437,16.274,2.018,30.252c-13.565,1.303-40.64,5.76-48.404,0c-1.384-6.762,3.384-7.373,8.067-8.067
	c0.909-10.993-3.596-16.572-2.017-28.235c0-1.345,0-2.689,0-4.034c-1.316-21.986-4.145-51.716-4.034-68.571
	c-1.6,4.646-9.479-1.044-10.084-4.034c0.563-4.143,5.387-4.025,8.067-6.051c4.986,2.366-4.893,8.381,4.034,8.067
	c0.344-3.018-0.721-7.442,2.017-8.067c5.474,1.25,16.006-2.561,18.151,2.018c-1.565,0.451-3.979,0.055-4.034,2.017
	c2.341,1.692,5.407,2.66,10.085,2.017C814.49,255.234,805.472,260.219,807.964,253.692z M809.98,316.214
	c0.088-2.776-0.949-4.428-2.017-6.05c1.565-0.452,3.979-0.056,4.034-2.018c-3.847-3.784-3.649,1.197-10.085,0
	c-0.114-1.229-0.301-2.387-2.017-2.017C799.557,313.192,806.992,312.479,809.98,316.214z M809.98,320.248
	c-1.294,4.889,9.608,7.557,10.084,4.033C815.38,323.398,814.666,315.376,809.98,320.248z"/>
<path fill-rule="evenodd" clip-rule="evenodd" fill="#434343" d="M307.791,285.962c8.973,1.578,12.104-2.687,20.168-2.017
	c0.087,2.776-0.95,4.428-2.018,6.05c17.687-16.079,39.467,4.544,40.337,24.202c3.569-13.116,7.271,10.494,12.101,12.102
	c-3.59,1.205-8.375-5.912-10.084,0c1.342,4.529-9.294,17.035,4.034,20.168c-1.086-4.829-8.719-13.406,0-16.135
	c5.243,7.844,5.284,0.185,8.067-4.033c6.539,15.646,19.098,25.272,24.201,42.353c0,6.051,0,12.102,0,18.152
	c6.078,18.991-7.906,15.618-24.201,16.134c-26.221-36.973-46.307-80.082-78.656-110.925c-0.108-3.47,1.553-5.171,4.033-6.051
	C306.445,285.962,307.118,285.962,307.791,285.962z M354.178,340.416c-5.432-8.566,2.567-1.478,4.033-8.067
	c-6.162-1.457-7.35,2.063-12.101,2.017c0.007-1.119-1.634-2.289-2.017,0C348.117,334.566,352.836,344.188,354.178,340.416z
	 M364.262,350.5c-3.886-0.819-1.594-7.818-8.067-6.05c0.087,2.776-0.95,4.428-2.017,6.05
	C359.186,347.877,362.547,356.418,364.262,350.5z"/>
<path fill-rule="evenodd" clip-rule="evenodd" fill="#434343" d="M830.149,106.464c-3.556-5.596-1.475-5.705-4.034-10.084
	c0.544,7.704-15.361,1.889-12.101-6.05c12.543,0.322,34.511-10.228,40.336,2.017c-11.464,6.015-17.776,17.182-22.185,30.252
	c0,0.672,0,1.345,0,2.017c-4.955,5.129-4.604,15.564-10.084,20.168c-4.668-4.917-5.684-17.436,0-22.185
	c0.445,1.572,1.688,2.345,4.033,2.017c0.452-3.813-2.272-4.45-2.017-8.067C821.955,109.026,831.662,113.355,830.149,106.464z"/>
<path fill-rule="evenodd" clip-rule="evenodd" fill="#434343" d="M676.87,96.38c6.723,0,13.445,0,20.168,0
	c9.309,12.386,5.711,51.714,6.051,60.505c0.346,2.301,3.005,22.77,4.034,40.336c-3.966-0.604-4,2.723-6.051,4.034
	c1.188-4.782-2.344-14.82-4.034-10.084c5.942,6.375-0.157,25.509,8.067,20.168c-0.671-0.482-3.866-7.499,0-10.084
	c5.866,1.754,2.269,3.02,2.018,8.067c6.334,1.382,8.24-0.232,10.084,2.017c0.087,2.776-0.95,4.428-2.018,6.05
	c-3.361,0-6.723,0-10.084,0c-15.52-2.022-42.604,9.628-50.421-4.034c4.196-1.182,6.519-4.238,10.085-6.05
	c-1.266-6.13,2.582-17.372-2.018-20.168c0-6.05,0-12.101,0-18.151c0.133-23.004-6.77-49.683-2.017-70.589
	C665.558,97.168,675.368,100.929,676.87,96.38z"/>
<path fill-rule="evenodd" clip-rule="evenodd" fill="#434343" d="M481.237,108.481c6.724,0,13.446,0,20.169,0
	c5.274-0.568,8.675,0.736,8.067,6.05c-1.374,6.301-6.142,3.392-8.067,0c3.862,9.913-6.703,5.398-6.051,12.101
	c2.017,0,4.034,0,6.051,0c0.96,8.929-2.775,10.029,0,16.135c1.407,15.4,0.892,32.722,4.033,46.387c0,6.05,0,12.101,0,18.151
	c-1.558,9.625,3.154,12.98,2.017,22.185c-16.921,1.229-33.421,2.881-52.437,2.017c0-2.689,0-5.378,0-8.067c0.672,0,1.344,0,2.016,0
	c9.8-0.34,6.75-24.102,4.034-30.252c0-1.344,0-2.689,0-4.033c0-5.378,0-10.757,0-16.135c0.883-6.934-0.797-11.304-2.017-16.135
	c-1.295-8.117,2.622-21.446-2.018-26.219c0-2.017,0-4.034,0-6.05c-0.525-2.835-4.423-2.299-6.05-4.034c-0.673,0-1.345,0-2.017,0
	c-0.111-2.579-2.586-2.793-2.018-6.051C452.629,106.763,473.161,113.85,481.237,108.481z M491.322,173.02
	c-1.529-7.042,6.104-15.228,0-20.168C490.692,158.136,487.667,173.496,491.322,173.02z M499.39,195.205
	c-11.198-1.289,4.435-18.282-6.051-18.151C488.686,179.835,498.645,204.287,499.39,195.205z"/>
<path fill-rule="evenodd" clip-rule="evenodd" fill="#434343" d="M563.928,104.447c16.277,2.03,39.146-8.148,50.421,2.017
	c-3.018,5.722-11.108,6.371-8.067,18.152c0,4.034,0,8.067,0,12.101c2.193,14.614,0.395,33.22,4.033,46.387c0,2.017,0,4.034,0,6.051
	c0,1.344,0,2.689,0,4.033c0,4.034,0,8.067,0,12.101c-1.747,9.142,10.073,4.717,10.084,12.101
	c-3.814,11.647-27.867,3.057-38.319,8.067c-3.361,0-6.723,0-10.084,0c-3.546-1.16-11.85,2.438-12.101-2.017
	c6.733-7.73,11.775-24.45,6.05-38.319c0-1.345,0-2.689,0-4.034c0-3.361,0-6.723,0-10.084c1.597-11.211-1.296-19.071-2.017-32.269
	c5.152-0.226,7.059-3.697,10.084-6.051c-6.429-1.723-7.655,1.757-10.084,4.034c3.602-17.047-6.803-20.088-12.101-28.235
	c1.714-2.992,5.075-4.336,10.084-4.034C562.583,104.447,563.256,104.447,563.928,104.447z M569.979,177.053
	c6.611,1.098,16.265-5.066,10.084-10.084c-0.786,2.878-2.421,3.402,0,6.051C575.054,172.717,571.692,174.062,569.979,177.053z"/>
<path fill-rule="evenodd" clip-rule="evenodd" fill="#434343" d="M799.896,92.346c0,1.345,0,2.689,0,4.034
	c-0.826,2.535-2.601,4.122-6.051,4.034c-1.375,12.132,8.283,13.23,6.051,26.219c2.017,0,4.034,0,6.051,0c0,0.672,0,1.345,0,2.017
	c3.697,10.42,11.388,16.848,14.117,28.235c0,0.672,0,1.345,0,2.017c-0.821,14.268,3.59,23.301,2.018,38.32
	c2.892,3.159,10.513,1.588,10.084,8.067c-9.677,9.323-46.047,5.991-54.454,4.034c1.571,0.445,2.345,1.689,2.017,4.034
	c-4.219-2.335-7.58,0.944-10.084-6.05c1.376-5.347,11.188-2.257,10.084-10.084c0-0.672,0-1.344,0-2.017
	c1.097-24.626-6.19-40.869-16.135-54.455c0-0.672,0-1.344,0-2.017c-3.751-7.005-6.518-14.995-12.101-20.168c0-0.672,0-1.344,0-2.017
	c-2.253-8.504-8.704-12.809-14.118-18.151c-0.617-4.651,5.827-2.241,6.051-6.051c6.05,0,12.101,0,18.151,0
	C774.604,93.436,788.733,86.588,799.896,92.346z"/>
<path fill-rule="evenodd" clip-rule="evenodd" fill="#434343" d="M223.083,124.616c6.723,0,13.446,0,20.168,0
	c-0.104,27.262,0.458-11.48,14.118,2.017c1.384,6.762-3.383,7.373-8.067,8.067c-1.229,16.691,1.562,29.363,2.017,44.37
	c0,2.017,0,4.034,0,6.051c2.717,20.813-1.914,48.973,16.135,54.454c-5.199,0.486,2.77,3.47,0,8.067
	c-29.382,0.615-43.556-3.063-56.471-20.168c0-2.689,0-5.378,0-8.067c-2.415-15.737-0.41-35.893-4.034-50.42
	c0-4.706,0-9.412,0-14.118c2.325-13.082-2.924-18.589-12.101-20.168c0-1.345,0-2.689,0-4.034c3.694-5.364,24.853-6.816,28.235,0
	C223.083,128.649,223.083,126.632,223.083,124.616z M239.218,146.801c0.114-1.23,0.302-2.388,2.017-2.017
	c0.452,1.565,0.055,3.979,2.017,4.034c-2.74-7.812-1.536-7.882-4.034-14.118C238.758,138.295,235.362,142.6,239.218,146.801z
	 M225.101,152.851c3.918,3.401,3.246,19.265-2.017,20.168c4.409,0.296,4.331,5.082,4.034,10.084c7.535,0.182,5.749,2.261,12.101,0
	c1.519-5.112-7.704-9.46-8.067-6.05c2.191,0.483,4.842,3.321,2.017,4.034c-6.878-2.595-4.853-24.646-2.017-30.252
	c-1.469,3.296,4.008,8.773,4.034,4.034c-7.072-0.548,3.643-8.931-2.017-8.067C232.62,150.958,224.237,147.282,225.101,152.851z
	 M223.083,183.104c-0.639-8.101-1.409-16.07-6.05-20.168C219.749,173.098,217.363,175.946,223.083,183.104z"/>
<path fill-rule="evenodd" clip-rule="evenodd" fill="#434343" d="M404.598,116.548c0,1.344,0,2.689,0,4.034
	c3.691,13.116,8.292,25.322,12.102,38.319c-0.33,6.381,5.36,6.741,4.033,14.118c8.209,20.027,11.673,44.799,26.219,58.488
	c-16.068,1.507-56.393,12.284-62.521-2.017c4.107-0.599,5.373-4.04,8.067-6.051c-1.512-6.555-3.651-12.483-6.05-18.151
	c-10.323-1.583-14.65,2.829-24.202,2.017c1.103-2.931-2.356-10.424,2.017-10.084c10.693,0.352,10.292,1.306,20.168,0
	c-2.256-23.197-25.666-55.132-18.151-80.673c0.673,0,1.345,0,2.017,0C381.921,118.86,393.978,110.727,404.598,116.548z"/>
<path fill-rule="evenodd" clip-rule="evenodd" fill="#434343" d="M98.041,136.716c7.451-1.96,11.581-7.243,22.185-6.05
	c-0.452,3.813,2.273,4.45,2.017,8.067c-5.196,2.992-9.693,5.241-12.101,6.05c3.522,1.856,4.452,6.305,4.034,12.101
	c0,3.361,0,6.723,0,10.084c4.943,24.686-2.745,78.789,14.118,78.656c-1.103,2.931,2.356,10.424-2.017,10.084
	c-5.244-3.664-6.083,0.873-12.101-2.017c-1.344,0-2.689,0-4.034,0c-23.857-9.084-36.723-29.159-40.336-58.488
	c0-2.017,0-4.034,0-6.05c1.141-20.373,9.279-33.747,18.151-46.387c3.47-0.796,5.17,2.993,6.051,0
	C87.784,140.747,98.381,139.442,98.041,136.716z M89.973,150.834c5.166-1.558,11.433-2.012,14.118-6.051
	c-3.331-0.031-1.128-5.594-4.034-6.05C101.92,149.038,94.463,143.871,89.973,150.834z"/>
<path fill-rule="evenodd" clip-rule="evenodd" fill="#434343" d="M662.752,344.45c-11.67-40.124,4.605-81.204,42.354-84.707
	c-13.712,28.732,3.687,74.933-4.033,104.875c9.239,4.194,4.597,13.258,10.084,18.151c0.344-3.018-0.721-7.443,2.017-8.067
	c-1.103,2.931,2.356,10.424-2.017,10.084c-6.169,1.463-5.933-3.479-12.101-2.017c-0.673,0-1.345,0-2.018,0
	c-16.818-6.038-26.231-19.482-34.286-34.286C662.752,347.139,662.752,345.794,662.752,344.45z"/>
<path fill-rule="evenodd" clip-rule="evenodd" fill="#434343" d="M444.936,277.895c-2.547,16.278-10.701,26.946-14.119,42.354
	c-15.535-6.202-8.104-34.957-8.066-42.354C430.145,277.895,437.54,277.895,444.936,277.895z"/>
<path fill-rule="evenodd" clip-rule="evenodd" fill="#434343" d="M551.827,269.827c3.361,0,6.723,0,10.084,0
	c6.723,0,13.445,0,20.168,0c1.885,35.763,5.053,70.242,6.051,106.892c3.03,3.021,8.492,3.608,10.084,8.067
	c-0.483,2.879-3.321,3.401-4.034,6.051c-6.05,0-12.101,0-18.151,0c-11.824-2.728-35.266,10.833-36.303-6.051
	c16.807,2.347,2.293-23.533,12.102-20.168c-5.341-3.399-2.253-15.227-6.051-20.168c0-3.361,0-6.723,0-10.085
	c-0.513-16.831,1.538-48.606-12.101-58.487C538.998,269.022,545.372,274.466,551.827,269.827z"/>
<path fill-rule="evenodd" clip-rule="evenodd" fill="#434343" d="M626.449,390.837c-31.04,0.115-12.758-49.092-34.286-58.488
	c3.439-0.826-0.424-2.601,0-6.05c23.499-9.642,1.914-44.579-2.017-58.488c54.65-13.867,64.182,52.92,24.202,62.521
	c26.211-3.354,29.462,16.253,30.252,38.319c6.353,0.975,4.566-6.189,12.102-4.033c2.909,16.944-13.038,22.437-26.219,26.219
	C629.139,390.837,627.794,390.837,626.449,390.837z M612.332,302.097c3.472,2.463,16.111,1.178,18.151-4.034
	C624.919,299.894,616.319,298.689,612.332,302.097z"/>
<path fill-rule="evenodd" clip-rule="evenodd" fill="#434343" d="M114.175,298.063c4.59-1.461,10.303-1.798,14.118-4.033
	c0.672,0,1.344,0,2.017,0c2.96,11.027-5.145,10.989-8.067,16.135c0,0.672,0,1.345,0,2.017c-3.334,1.531-3.334,16.62,0,18.151
	c0,7.396,0,14.79,0,22.186c-0.131,14.685,7.821,40.555-4.034,48.403c10.5-5.884,9.49,10.201,18.151,12.102
	c-0.343,3.018,0.721,7.442-2.017,8.066c-8.549,0.481-14.281-1.854-20.168-4.033c-2.578-0.11-2.793-2.585-6.05-2.017
	c-6.683-6.091-14.515-11.032-18.151-20.169c-0.087-2.776,0.95-4.428,2.017-6.05c-2.776-0.088-4.428,0.949-6.05,2.017
	c0.539-7.262-3.726-9.72-4.034-16.135c0-0.672,0-1.345,0-2.017c-5.441-28.159,5.177-60.898,30.252-74.623
	C112.831,298.063,113.503,298.063,114.175,298.063z M108.125,364.618c5.742-1.653,10.239-4.552,12.101-10.084
	C112.961,354.665,110.782,359.881,108.125,364.618z"/>
<path fill-rule="evenodd" clip-rule="evenodd" fill="#434343" d="M257.37,289.995c0.672,0,1.345,0,2.017,0
	c11.582,5.897,20.349,14.61,28.235,24.202c-0.966,6.345,2.872,7.884,4.034,12.102c4.742,15.244,5.533,37.476,0,52.438
	c0,0.672,0,1.344,0,2.017c-8.404,8.976-9.468,22.381-20.168,24.202c-0.26,0.044-0.159-5.185-2.017-4.034
	c-0.862,0.534,0.644,5.186,0,6.051c-3.963,5.323-12.703,3.608-20.168,6.051c1.018-6.335-4.753-8.241,2.017-10.085
	c4.833-0.799-1.119,9.187,6.05,6.051c0.875-8.845-6.18-6.624-2.017-14.118c0-0.672,0-1.344,0-2.017
	c-0.827-18.669-0.878-38.113-4.034-54.454c0-6.723,0-13.445,0-20.168c0.273-9.685-1.534-17.29-8.067-20.169
	c-0.672,0-1.345,0-2.017,0c1.103-2.931-2.357-10.424,2.017-10.084C250.248,286.361,251.004,290.982,257.37,289.995z
	 M269.471,396.888c-4.528-5.36,3.016-10.271-2.017-14.118C263.518,385.31,262.341,395.281,269.471,396.888z"/>
<path fill-rule="evenodd" clip-rule="evenodd" fill="#434343" d="M493.339,302.097c0,3.361,0,6.723,0,10.084
	c1.099,19.644,5.373,53.306-6.051,48.403c6.353-0.974,1.511,9.247,6.051,10.085c-0.303-5.009,1.042-8.37,4.033-10.085
	c0,2.018,0,4.034,0,6.051c0,2.689,0,5.379,0,8.067c-5.917,1.715,2.623,5.076,0,10.084c5.7-1.666,5.226,2.843,10.084,2.018
	c0.536,13.378-7.277,4.651-10.084,0c-2.92,7.625,5.542,3.87,4.034,10.084c-11.934-6.104-48.056,11.25-52.438-6.051
	c2.996-2.382,9.011-1.745,8.066-8.067c0-5.378,0-10.756,0-16.135c0.883-6.934-0.796-11.304-2.016-16.135
	c-1.301-8.783,2.63-22.799-2.018-28.235c0-2.689,0-5.378,0-8.067c0-4.706,0-9.412,0-14.117c1.489-9.557-2.268-13.866-2.017-22.186
	c10.565-4.225,29.131-0.449,40.337-4.033C489.922,285.346,494.739,290.612,493.339,302.097z"/>
<path fill-rule="evenodd" clip-rule="evenodd" fill="#434343" d="M727.291,346.467c-1.654-23.221-3.614-46.135-4.034-70.589
	c-3.149-6.262-12.953-5.87-10.084-18.151c12.83,1.417,34.692,7.278,40.337,22.185c0.672,0,1.345,0,2.017,0
	c0.114,1.23,0.302,2.388,2.017,2.017c3.625,9.149,7.143,18.405,10.084,28.236c0,1.345,0,2.688,0,4.033s0,2.689,0,4.034
	c0,6.723,0,13.445,0,20.168c-5.933,20.958-16.692,37.089-36.303,44.37c-1.344,0-2.688,0-4.033,0
	c-13.782,4.025-0.853-10.766,0-16.135c0-2.688,0-5.378,0-8.067C727.291,354.534,727.291,350.5,727.291,346.467z"/>
<path fill-rule="evenodd" clip-rule="evenodd" fill="#434343" d="M856.368,342.433c0.672,0,1.344,0,2.017,0
	c-0.806-7.528,1.611-11.833,8.067-12.101c6.207,7.942,3.831,35.118,4.033,42.354c-13.329-1.229-20.676,3.525-34.286,2.017
	c0-3.361,0-6.723,0-10.084c12.678-0.097,15.89-9.657,20.169-18.151C856.368,345.122,856.368,343.777,856.368,342.433z"/>
</svg>
